<svg xmlns="http://www.w3.org/2000/svg" version="1.1" xmlns:xlink="http://www.w3.org/1999/xlink" width="1500" height="412" viewBox="0 0 1500 412"><svg xml:space="preserve" width="1500" height="412" data-version="2" data-id="lg_WSmOY2bFTcuVBYgqD4" viewBox="0 0 412 412" x="0" y="0"><rect width="100%" height="100%" fill="transparent"></rect><g transform="translate(206 206)scale(4.04)"><filter id="a" width="158%" height="158%" x="-29%" y="-29%"><feGaussianBlur in="SourceAlpha" stdDeviation="3"></feGaussianBlur><feOffset dx="3" dy="3" result="oBlur"></feOffset><feFlood flood-color="#FFF" flood-opacity="1"></feFlood><feComposite in2="oBlur" operator="in"></feComposite><feMerge><feMergeNode></feMergeNode><feMergeNode in="SourceGraphic"></feMergeNode></feMerge></filter><circle r="50" fill="#fff" filter="url(#a)"></circle></g><path fill="#111" d="M293.847 127.847c-36.918 0-70.749 34.66-87.847 55.61-17.098-20.95-50.929-55.61-87.847-55.61C75.059 127.847 40 162.907 40 206s35.06 78.153 78.153 78.153c36.918 0 70.749-34.628 87.847-55.61 17.098 20.949 50.929 55.61 87.847 55.61 43.094 0 78.153-35.06 78.153-78.153 0-43.094-35.06-78.153-78.153-78.153M118.153 256.995c-28.12 0-51.029-22.875-51.029-50.995 0-28.12 22.908-51.029 51.029-51.029 26.228 0 56.34 31.972 71.048 51.029-14.708 19.09-44.82 51.028-71.048 51.028m175.694 0c-26.228 0-56.373-31.938-71.048-50.995 14.675-19.09 44.754-51.028 71.048-51.028 28.16.056 50.972 22.868 51.029 51.028 0 28.154-22.908 51.028-51.029 51.028"></path></svg></svg>